<mxfile host="app.diagrams.net" modified="2023-12-19T00:29:48.523Z" agent="Mozilla/5.0 (Windows NT 10.0; Win64; x64) AppleWebKit/537.36 (KHTML, like Gecko) Chrome/120.0.0.0 Safari/537.36" version="22.1.11" etag="Gdlz37qc_oF0ma5Ubsuq" type="github">
  <diagram name="Page-1" id="pYerNF7Www8VVemX55-a">
    <mxGraphModel>
      <root>
        <mxCell id="0" />
        <mxCell id="1" parent="0" />
      </root>
    </mxGraphModel>
  </diagram>
</mxfile>
